<svg xmlns="http://www.w3.org/2000/svg" version="1.1" xmlns:xlink="http://www.w3.org/1999/xlink" xmlns:svgjs="http://svgjs.com/svgjs" width="1440" height="560" preserveAspectRatio="none" viewBox="0 0 1440 560"><g mask="url(&quot;#SvgjsMask1000&quot;)" fill="none"><rect width="1440" height="560" x="0" y="0" fill="#0e2a47"></rect><path d="M 0,213 C 57.6,183.4 172.8,74.6 288,65 C 403.2,55.4 460.8,150.2 576,165 C 691.2,179.8 748.8,119 864,139 C 979.2,159 1036.8,292.2 1152,265 C 1267.2,237.8 1382.4,55.4 1440,3L1440 560L0 560z" fill="#184a7e"></path><path d="M 0,439 C 96,431.6 288,405.6 480,402 C 672,398.4 768,436.6 960,421 C 1152,405.4 1344,343.4 1440,324L1440 560L0 560z" fill="#2264ab"></path></g><defs><mask id="SvgjsMask1000"><rect width="1440" height="560" fill="#ffffff"></rect></mask></defs></svg>